<mxfile host="app.diagrams.net" modified="2021-12-21T10:35:00.293Z" agent="5.0 (Windows NT 10.0; Win64; x64) AppleWebKit/537.36 (KHTML, like Gecko) Chrome/96.0.4664.110 Safari/537.36 Edg/96.0.1054.62" etag="c1bCyV3U_yqwgGzcPqij" version="15.9.6" type="github">
  <diagram id="C5RBs43oDa-KdzZeNtuy" name="Page-1">
    <mxGraphModel dx="496" dy="494" grid="1" gridSize="10" guides="1" tooltips="1" connect="1" arrows="1" fold="1" page="1" pageScale="1" pageWidth="827" pageHeight="1169" math="0" shadow="0">
      <root>
        <mxCell id="WIyWlLk6GJQsqaUBKTNV-0" />
        <mxCell id="WIyWlLk6GJQsqaUBKTNV-1" parent="WIyWlLk6GJQsqaUBKTNV-0" />
        <mxCell id="t8ftVhnY8zTbfghIeehf-4" value="Pool" style="swimlane;childLayout=stackLayout;resizeParent=1;resizeParentMax=0;startSize=20;horizontal=0;horizontalStack=1;fontSize=12;" vertex="1" parent="WIyWlLk6GJQsqaUBKTNV-1">
          <mxGeometry x="180" y="50" width="400" height="480" as="geometry" />
        </mxCell>
        <mxCell id="t8ftVhnY8zTbfghIeehf-5" value="工程师" style="swimlane;startSize=20;" vertex="1" parent="t8ftVhnY8zTbfghIeehf-4">
          <mxGeometry x="20" width="140" height="480" as="geometry">
            <mxRectangle x="20" width="30" height="480" as="alternateBounds" />
          </mxGeometry>
        </mxCell>
        <mxCell id="t8ftVhnY8zTbfghIeehf-14" value="" style="edgeStyle=orthogonalEdgeStyle;rounded=0;orthogonalLoop=1;jettySize=auto;html=1;fontSize=11;" edge="1" parent="t8ftVhnY8zTbfghIeehf-5" source="t8ftVhnY8zTbfghIeehf-9" target="t8ftVhnY8zTbfghIeehf-13">
          <mxGeometry relative="1" as="geometry" />
        </mxCell>
        <mxCell id="t8ftVhnY8zTbfghIeehf-9" value="选择资源&lt;font size=&quot;1&quot;&gt;分类&lt;/font&gt;" style="rounded=1;whiteSpace=wrap;html=1;fontSize=10;" vertex="1" parent="t8ftVhnY8zTbfghIeehf-5">
          <mxGeometry x="25" y="40" width="90" height="40" as="geometry" />
        </mxCell>
        <mxCell id="t8ftVhnY8zTbfghIeehf-24" value="" style="edgeStyle=orthogonalEdgeStyle;rounded=0;orthogonalLoop=1;jettySize=auto;html=1;fontSize=11;" edge="1" parent="t8ftVhnY8zTbfghIeehf-5" source="t8ftVhnY8zTbfghIeehf-13" target="t8ftVhnY8zTbfghIeehf-17">
          <mxGeometry relative="1" as="geometry" />
        </mxCell>
        <mxCell id="t8ftVhnY8zTbfghIeehf-13" value="创建资源" style="rounded=1;whiteSpace=wrap;html=1;fontSize=10;" vertex="1" parent="t8ftVhnY8zTbfghIeehf-5">
          <mxGeometry x="25" y="130" width="90" height="40" as="geometry" />
        </mxCell>
        <mxCell id="t8ftVhnY8zTbfghIeehf-23" value="" style="edgeStyle=orthogonalEdgeStyle;rounded=0;orthogonalLoop=1;jettySize=auto;html=1;fontSize=11;" edge="1" parent="t8ftVhnY8zTbfghIeehf-5" source="t8ftVhnY8zTbfghIeehf-17" target="t8ftVhnY8zTbfghIeehf-18">
          <mxGeometry relative="1" as="geometry" />
        </mxCell>
        <mxCell id="t8ftVhnY8zTbfghIeehf-17" value="编辑资源属性" style="rounded=1;whiteSpace=wrap;html=1;fontSize=10;" vertex="1" parent="t8ftVhnY8zTbfghIeehf-5">
          <mxGeometry x="25" y="220" width="90" height="40" as="geometry" />
        </mxCell>
        <mxCell id="t8ftVhnY8zTbfghIeehf-18" value="发起流程" style="rounded=1;whiteSpace=wrap;html=1;fontSize=10;" vertex="1" parent="t8ftVhnY8zTbfghIeehf-5">
          <mxGeometry x="25" y="310" width="90" height="40" as="geometry" />
        </mxCell>
        <mxCell id="t8ftVhnY8zTbfghIeehf-6" value="审批人员" style="swimlane;startSize=20;" vertex="1" parent="t8ftVhnY8zTbfghIeehf-4">
          <mxGeometry x="160" width="120" height="480" as="geometry" />
        </mxCell>
        <mxCell id="t8ftVhnY8zTbfghIeehf-21" value="" style="edgeStyle=orthogonalEdgeStyle;rounded=0;orthogonalLoop=1;jettySize=auto;html=1;fontSize=11;" edge="1" parent="t8ftVhnY8zTbfghIeehf-6" source="t8ftVhnY8zTbfghIeehf-19" target="t8ftVhnY8zTbfghIeehf-20">
          <mxGeometry relative="1" as="geometry" />
        </mxCell>
        <mxCell id="t8ftVhnY8zTbfghIeehf-19" value="流程审核" style="rounded=1;whiteSpace=wrap;html=1;fontSize=10;" vertex="1" parent="t8ftVhnY8zTbfghIeehf-6">
          <mxGeometry x="15" y="310" width="90" height="40" as="geometry" />
        </mxCell>
        <mxCell id="t8ftVhnY8zTbfghIeehf-20" value="审核通过" style="rhombus;whiteSpace=wrap;html=1;fontSize=11;" vertex="1" parent="t8ftVhnY8zTbfghIeehf-6">
          <mxGeometry x="20" y="215" width="80" height="50" as="geometry" />
        </mxCell>
        <mxCell id="t8ftVhnY8zTbfghIeehf-7" value="System" style="swimlane;startSize=20;" vertex="1" parent="t8ftVhnY8zTbfghIeehf-4">
          <mxGeometry x="280" width="120" height="480" as="geometry" />
        </mxCell>
        <mxCell id="t8ftVhnY8zTbfghIeehf-26" value="资源发布" style="rounded=1;whiteSpace=wrap;html=1;fontSize=10;" vertex="1" parent="t8ftVhnY8zTbfghIeehf-7">
          <mxGeometry x="15" y="220" width="90" height="40" as="geometry" />
        </mxCell>
        <mxCell id="t8ftVhnY8zTbfghIeehf-29" value="MPM同步" style="rounded=1;whiteSpace=wrap;html=1;fontSize=10;" vertex="1" parent="t8ftVhnY8zTbfghIeehf-7">
          <mxGeometry x="15" y="130" width="90" height="40" as="geometry" />
        </mxCell>
        <mxCell id="t8ftVhnY8zTbfghIeehf-22" value="" style="edgeStyle=orthogonalEdgeStyle;rounded=0;orthogonalLoop=1;jettySize=auto;html=1;fontSize=11;" edge="1" parent="t8ftVhnY8zTbfghIeehf-4" source="t8ftVhnY8zTbfghIeehf-18" target="t8ftVhnY8zTbfghIeehf-19">
          <mxGeometry relative="1" as="geometry" />
        </mxCell>
        <mxCell id="t8ftVhnY8zTbfghIeehf-25" value="否" style="edgeStyle=orthogonalEdgeStyle;rounded=0;orthogonalLoop=1;jettySize=auto;html=1;fontSize=11;" edge="1" parent="t8ftVhnY8zTbfghIeehf-4" source="t8ftVhnY8zTbfghIeehf-20" target="t8ftVhnY8zTbfghIeehf-17">
          <mxGeometry relative="1" as="geometry" />
        </mxCell>
        <mxCell id="t8ftVhnY8zTbfghIeehf-27" value="是" style="edgeStyle=orthogonalEdgeStyle;rounded=0;orthogonalLoop=1;jettySize=auto;html=1;fontSize=11;" edge="1" parent="t8ftVhnY8zTbfghIeehf-4" source="t8ftVhnY8zTbfghIeehf-20" target="t8ftVhnY8zTbfghIeehf-26">
          <mxGeometry relative="1" as="geometry" />
        </mxCell>
        <mxCell id="t8ftVhnY8zTbfghIeehf-8" value="资源管理员" style="swimlane;startSize=20;" vertex="1" parent="WIyWlLk6GJQsqaUBKTNV-1">
          <mxGeometry x="580" y="50" width="120" height="480" as="geometry" />
        </mxCell>
        <mxCell id="t8ftVhnY8zTbfghIeehf-28" value="资源入库" style="rounded=1;whiteSpace=wrap;html=1;fontSize=10;" vertex="1" parent="t8ftVhnY8zTbfghIeehf-8">
          <mxGeometry x="15" y="220" width="90" height="40" as="geometry" />
        </mxCell>
        <mxCell id="t8ftVhnY8zTbfghIeehf-30" value="" style="edgeStyle=orthogonalEdgeStyle;rounded=0;orthogonalLoop=1;jettySize=auto;html=1;fontSize=11;" edge="1" parent="WIyWlLk6GJQsqaUBKTNV-1" source="t8ftVhnY8zTbfghIeehf-26" target="t8ftVhnY8zTbfghIeehf-28">
          <mxGeometry relative="1" as="geometry" />
        </mxCell>
        <mxCell id="t8ftVhnY8zTbfghIeehf-31" style="edgeStyle=orthogonalEdgeStyle;rounded=0;orthogonalLoop=1;jettySize=auto;html=1;exitX=0.5;exitY=0;exitDx=0;exitDy=0;entryX=1;entryY=0.5;entryDx=0;entryDy=0;fontSize=11;" edge="1" parent="WIyWlLk6GJQsqaUBKTNV-1" source="t8ftVhnY8zTbfghIeehf-28" target="t8ftVhnY8zTbfghIeehf-29">
          <mxGeometry relative="1" as="geometry" />
        </mxCell>
      </root>
    </mxGraphModel>
  </diagram>
</mxfile>
